<svg height="3310" width="720" xmlns="http://www.w3.org/2000/svg">
<rect height="3310" fill="#555" width="720"></rect>
<text fill="#7f7" font-family="Courier New" font-size="12" xml:space="preserve">
<tspan x="10" y="26">54 megabytes installed</tspan>
<tspan x="10" y="42"></tspan>
<tspan x="10" y="58">node_modules</tspan>
<tspan x="10" y="74">└─┬ drakov@1.0.3 </tspan>
<tspan x="10" y="90">  ├── async@2.3.0 </tspan>
<tspan x="10" y="106">  ├─┬ chokidar@1.6.1 </tspan>
<tspan x="10" y="122">  │ ├─┬ anymatch@1.3.0 </tspan>
<tspan x="10" y="138">  │ │ ├── arrify@1.0.1 </tspan>
<tspan x="10" y="154">  │ │ └─┬ micromatch@2.3.11 </tspan>
<tspan x="10" y="170">  │ │   ├─┬ arr-diff@2.0.0 </tspan>
<tspan x="10" y="186">  │ │   │ └── arr-flatten@1.0.3 </tspan>
<tspan x="10" y="202">  │ │   ├── array-unique@0.2.1 </tspan>
<tspan x="10" y="218">  │ │   ├─┬ braces@1.8.5 </tspan>
<tspan x="10" y="234">  │ │   │ ├─┬ expand-range@1.8.2 </tspan>
<tspan x="10" y="250">  │ │   │ │ └─┬ fill-range@2.2.3 </tspan>
<tspan x="10" y="266">  │ │   │ │   ├── is-number@2.1.0 </tspan>
<tspan x="10" y="282">  │ │   │ │   ├── isobject@2.1.0 </tspan>
<tspan x="10" y="298">  │ │   │ │   ├── randomatic@1.1.6 </tspan>
<tspan x="10" y="314">  │ │   │ │   └── repeat-string@1.6.1 </tspan>
<tspan x="10" y="330">  │ │   │ ├── preserve@0.2.0 </tspan>
<tspan x="10" y="346">  │ │   │ └── repeat-element@1.1.2 </tspan>
<tspan x="10" y="362">  │ │   ├─┬ expand-brackets@0.1.5 </tspan>
<tspan x="10" y="378">  │ │   │ └── is-posix-bracket@0.1.1 </tspan>
<tspan x="10" y="394">  │ │   ├── extglob@0.3.2 </tspan>
<tspan x="10" y="410">  │ │   ├── filename-regex@2.0.0 </tspan>
<tspan x="10" y="426">  │ │   ├─┬ kind-of@3.1.0 </tspan>
<tspan x="10" y="442">  │ │   │ └── is-buffer@1.1.5 </tspan>
<tspan x="10" y="458">  │ │   ├─┬ normalize-path@2.1.1 </tspan>
<tspan x="10" y="474">  │ │   │ └── remove-trailing-separator@1.0.1 </tspan>
<tspan x="10" y="490">  │ │   ├─┬ object.omit@2.0.1 </tspan>
<tspan x="10" y="506">  │ │   │ ├─┬ for-own@0.1.5 </tspan>
<tspan x="10" y="522">  │ │   │ │ └── for-in@1.0.2 </tspan>
<tspan x="10" y="538">  │ │   │ └── is-extendable@0.1.1 </tspan>
<tspan x="10" y="554">  │ │   ├─┬ parse-glob@3.0.4 </tspan>
<tspan x="10" y="570">  │ │   │ ├── glob-base@0.3.0 </tspan>
<tspan x="10" y="586">  │ │   │ └── is-dotfile@1.0.2 </tspan>
<tspan x="10" y="602">  │ │   └─┬ regex-cache@0.4.3 </tspan>
<tspan x="10" y="618">  │ │     ├── is-equal-shallow@0.1.3 </tspan>
<tspan x="10" y="634">  │ │     └── is-primitive@2.0.0 </tspan>
<tspan x="10" y="650">  │ ├── async-each@1.0.1 </tspan>
<tspan x="10" y="666">  │ ├── glob-parent@2.0.0 </tspan>
<tspan x="10" y="682">  │ ├── inherits@2.0.3 </tspan>
<tspan x="10" y="698">  │ ├─┬ is-binary-path@1.0.1 </tspan>
<tspan x="10" y="714">  │ │ └── binary-extensions@1.8.0 </tspan>
<tspan x="10" y="730">  │ ├─┬ is-glob@2.0.1 </tspan>
<tspan x="10" y="746">  │ │ └── is-extglob@1.0.0 </tspan>
<tspan x="10" y="762">  │ ├── path-is-absolute@1.0.1 </tspan>
<tspan x="10" y="778">  │ └─┬ readdirp@2.1.0 </tspan>
<tspan x="10" y="794">  │   ├── graceful-fs@4.1.11 </tspan>
<tspan x="10" y="810">  │   ├─┬ readable-stream@2.2.9 </tspan>
<tspan x="10" y="826">  │   │ ├── buffer-shims@1.0.0 </tspan>
<tspan x="10" y="842">  │   │ ├── core-util-is@1.0.2 </tspan>
<tspan x="10" y="858">  │   │ ├── isarray@1.0.0 </tspan>
<tspan x="10" y="874">  │   │ ├── process-nextick-args@1.0.7 </tspan>
<tspan x="10" y="890">  │   │ ├── string_decoder@1.0.0 </tspan>
<tspan x="10" y="906">  │   │ └── util-deprecate@1.0.2 </tspan>
<tspan x="10" y="922">  │   └── set-immediate-shim@1.0.1 </tspan>
<tspan x="10" y="938">  ├── colors@1.1.2 </tspan>
<tspan x="10" y="954">  ├─┬ drafter@1.2.0 </tspan>
<tspan x="10" y="970">  │ ├── drafter.js@2.6.6 </tspan>
<tspan x="10" y="986">  │ └─┬ protagonist@1.6.7 </tspan>
<tspan x="10" y="1002">  │   └── nan@2.2.1 </tspan>
<tspan x="10" y="1018">  ├─┬ express@4.15.2 </tspan>
<tspan x="10" y="1034">  │ ├─┬ accepts@1.3.3 </tspan>
<tspan x="10" y="1050">  │ │ ├─┬ mime-types@2.1.15 </tspan>
<tspan x="10" y="1066">  │ │ │ └── mime-db@1.27.0 </tspan>
<tspan x="10" y="1082">  │ │ └── negotiator@0.6.1 </tspan>
<tspan x="10" y="1098">  │ ├── array-flatten@1.1.1 </tspan>
<tspan x="10" y="1114">  │ ├── content-disposition@0.5.2 </tspan>
<tspan x="10" y="1130">  │ ├── content-type@1.0.2 </tspan>
<tspan x="10" y="1146">  │ ├── cookie@0.3.1 </tspan>
<tspan x="10" y="1162">  │ ├── cookie-signature@1.0.6 </tspan>
<tspan x="10" y="1178">  │ ├─┬ debug@2.6.1 </tspan>
<tspan x="10" y="1194">  │ │ └── ms@0.7.2 </tspan>
<tspan x="10" y="1210">  │ ├── depd@1.1.0 </tspan>
<tspan x="10" y="1226">  │ ├── encodeurl@1.0.1 </tspan>
<tspan x="10" y="1242">  │ ├── escape-html@1.0.3 </tspan>
<tspan x="10" y="1258">  │ ├── etag@1.8.0 </tspan>
<tspan x="10" y="1274">  │ ├─┬ finalhandler@1.0.1 </tspan>
<tspan x="10" y="1290">  │ │ ├── debug@2.6.3 </tspan>
<tspan x="10" y="1306">  │ │ └── unpipe@1.0.0 </tspan>
<tspan x="10" y="1322">  │ ├── fresh@0.5.0 </tspan>
<tspan x="10" y="1338">  │ ├── merge-descriptors@1.0.1 </tspan>
<tspan x="10" y="1354">  │ ├── methods@1.1.2 </tspan>
<tspan x="10" y="1370">  │ ├─┬ on-finished@2.3.0 </tspan>
<tspan x="10" y="1386">  │ │ └── ee-first@1.1.1 </tspan>
<tspan x="10" y="1402">  │ ├── parseurl@1.3.1 </tspan>
<tspan x="10" y="1418">  │ ├── path-to-regexp@0.1.7 </tspan>
<tspan x="10" y="1434">  │ ├─┬ proxy-addr@1.1.4 </tspan>
<tspan x="10" y="1450">  │ │ ├── forwarded@0.1.0 </tspan>
<tspan x="10" y="1466">  │ │ └── ipaddr.js@1.3.0 </tspan>
<tspan x="10" y="1482">  │ ├── range-parser@1.2.0 </tspan>
<tspan x="10" y="1498">  │ ├─┬ send@0.15.1 </tspan>
<tspan x="10" y="1514">  │ │ ├── destroy@1.0.4 </tspan>
<tspan x="10" y="1530">  │ │ ├── http-errors@1.6.1 </tspan>
<tspan x="10" y="1546">  │ │ └── mime@1.3.4 </tspan>
<tspan x="10" y="1562">  │ ├── serve-static@1.12.1 </tspan>
<tspan x="10" y="1578">  │ ├── setprototypeof@1.0.3 </tspan>
<tspan x="10" y="1594">  │ ├── statuses@1.3.1 </tspan>
<tspan x="10" y="1610">  │ ├─┬ type-is@1.6.15 </tspan>
<tspan x="10" y="1626">  │ │ └── media-typer@0.3.0 </tspan>
<tspan x="10" y="1642">  │ ├── utils-merge@1.0.0 </tspan>
<tspan x="10" y="1658">  │ └── vary@1.1.1 </tspan>
<tspan x="10" y="1674">  ├─┬ glob@7.1.1 </tspan>
<tspan x="10" y="1690">  │ ├── fs.realpath@1.0.0 </tspan>
<tspan x="10" y="1706">  │ ├─┬ inflight@1.0.6 </tspan>
<tspan x="10" y="1722">  │ │ └── wrappy@1.0.2 </tspan>
<tspan x="10" y="1738">  │ ├─┬ minimatch@3.0.3 </tspan>
<tspan x="10" y="1754">  │ │ └─┬ brace-expansion@1.1.7 </tspan>
<tspan x="10" y="1770">  │ │   ├── balanced-match@0.4.2 </tspan>
<tspan x="10" y="1786">  │ │   └── concat-map@0.0.1 </tspan>
<tspan x="10" y="1802">  │ └── once@1.4.0 </tspan>
<tspan x="10" y="1818">  ├─┬ jade@1.11.0 </tspan>
<tspan x="10" y="1834">  │ ├── character-parser@1.2.1 </tspan>
<tspan x="10" y="1850">  │ ├─┬ clean-css@3.4.25 </tspan>
<tspan x="10" y="1866">  │ │ ├─┬ commander@2.8.1 </tspan>
<tspan x="10" y="1882">  │ │ │ └── graceful-readlink@1.0.1 </tspan>
<tspan x="10" y="1898">  │ │ └─┬ source-map@0.4.4 </tspan>
<tspan x="10" y="1914">  │ │   └── amdefine@1.0.1 </tspan>
<tspan x="10" y="1930">  │ ├── commander@2.6.0 </tspan>
<tspan x="10" y="1946">  │ ├─┬ constantinople@3.0.2 </tspan>
<tspan x="10" y="1962">  │ │ └── acorn@2.7.0 </tspan>
<tspan x="10" y="1978">  │ ├─┬ jstransformer@0.0.2 </tspan>
<tspan x="10" y="1994">  │ │ ├── is-promise@2.1.0 </tspan>
<tspan x="10" y="2010">  │ │ └─┬ promise@6.1.0 </tspan>
<tspan x="10" y="2026">  │ │   └── asap@1.0.0 </tspan>
<tspan x="10" y="2042">  │ ├─┬ mkdirp@0.5.1 </tspan>
<tspan x="10" y="2058">  │ │ └── minimist@0.0.8 </tspan>
<tspan x="10" y="2074">  │ ├─┬ transformers@2.1.0 </tspan>
<tspan x="10" y="2090">  │ │ ├─┬ css@1.0.8 </tspan>
<tspan x="10" y="2106">  │ │ │ ├── css-parse@1.0.4 </tspan>
<tspan x="10" y="2122">  │ │ │ └── css-stringify@1.0.5 </tspan>
<tspan x="10" y="2138">  │ │ ├─┬ promise@2.0.0 </tspan>
<tspan x="10" y="2154">  │ │ │ └── is-promise@1.0.1 </tspan>
<tspan x="10" y="2170">  │ │ └─┬ uglify-js@2.2.5 </tspan>
<tspan x="10" y="2186">  │ │   ├─┬ optimist@0.3.7 </tspan>
<tspan x="10" y="2202">  │ │   │ └── wordwrap@0.0.3 </tspan>
<tspan x="10" y="2218">  │ │   └── source-map@0.1.43 </tspan>
<tspan x="10" y="2234">  │ ├─┬ uglify-js@2.8.22 </tspan>
<tspan x="10" y="2250">  │ │ ├── source-map@0.5.6 </tspan>
<tspan x="10" y="2266">  │ │ ├── uglify-to-browserify@1.0.2 </tspan>
<tspan x="10" y="2282">  │ │ └─┬ yargs@3.10.0 </tspan>
<tspan x="10" y="2298">  │ │   ├── camelcase@1.2.1 </tspan>
<tspan x="10" y="2314">  │ │   ├─┬ cliui@2.1.0 </tspan>
<tspan x="10" y="2330">  │ │   │ ├─┬ center-align@0.1.3 </tspan>
<tspan x="10" y="2346">  │ │   │ │ ├─┬ align-text@0.1.4 </tspan>
<tspan x="10" y="2362">  │ │   │ │ │ └── longest@1.0.1 </tspan>
<tspan x="10" y="2378">  │ │   │ │ └── lazy-cache@1.0.4 </tspan>
<tspan x="10" y="2394">  │ │   │ ├── right-align@0.1.3 </tspan>
<tspan x="10" y="2410">  │ │   │ └── wordwrap@0.0.2 </tspan>
<tspan x="10" y="2426">  │ │   └── window-size@0.1.0 </tspan>
<tspan x="10" y="2442">  │ ├── void-elements@2.0.1 </tspan>
<tspan x="10" y="2458">  │ └─┬ with@4.0.3 </tspan>
<tspan x="10" y="2474">  │   ├── acorn@1.2.2 </tspan>
<tspan x="10" y="2490">  │   └── acorn-globals@1.0.9 </tspan>
<tspan x="10" y="2506">  ├── lodash@4.17.4 </tspan>
<tspan x="10" y="2522">  ├─┬ path-to-regexp@1.7.0 </tspan>
<tspan x="10" y="2538">  │ └── isarray@0.0.1 </tspan>
<tspan x="10" y="2554">  ├── qs@6.4.0 </tspan>
<tspan x="10" y="2570">  ├── tv4@1.3.0 </tspan>
<tspan x="10" y="2586">  └─┬ yargs@6.6.0 </tspan>
<tspan x="10" y="2602">    ├── camelcase@3.0.0 </tspan>
<tspan x="10" y="2618">    ├─┬ cliui@3.2.0 </tspan>
<tspan x="10" y="2634">    │ └── wrap-ansi@2.1.0 </tspan>
<tspan x="10" y="2650">    ├── decamelize@1.2.0 </tspan>
<tspan x="10" y="2666">    ├── get-caller-file@1.0.2 </tspan>
<tspan x="10" y="2682">    ├─┬ os-locale@1.4.0 </tspan>
<tspan x="10" y="2698">    │ └─┬ lcid@1.0.0 </tspan>
<tspan x="10" y="2714">    │   └── invert-kv@1.0.0 </tspan>
<tspan x="10" y="2730">    ├─┬ read-pkg-up@1.0.1 </tspan>
<tspan x="10" y="2746">    │ ├─┬ find-up@1.1.2 </tspan>
<tspan x="10" y="2762">    │ │ ├── path-exists@2.1.0 </tspan>
<tspan x="10" y="2778">    │ │ └─┬ pinkie-promise@2.0.1 </tspan>
<tspan x="10" y="2794">    │ │   └── pinkie@2.0.4 </tspan>
<tspan x="10" y="2810">    │ └─┬ read-pkg@1.1.0 </tspan>
<tspan x="10" y="2826">    │   ├─┬ load-json-file@1.1.0 </tspan>
<tspan x="10" y="2842">    │   │ ├─┬ parse-json@2.2.0 </tspan>
<tspan x="10" y="2858">    │   │ │ └─┬ error-ex@1.3.1 </tspan>
<tspan x="10" y="2874">    │   │ │   └── is-arrayish@0.2.1 </tspan>
<tspan x="10" y="2890">    │   │ ├── pify@2.3.0 </tspan>
<tspan x="10" y="2906">    │   │ └─┬ strip-bom@2.0.0 </tspan>
<tspan x="10" y="2922">    │   │   └── is-utf8@0.2.1 </tspan>
<tspan x="10" y="2938">    │   ├─┬ normalize-package-data@2.3.6 </tspan>
<tspan x="10" y="2954">    │   │ ├── hosted-git-info@2.4.2 </tspan>
<tspan x="10" y="2970">    │   │ ├─┬ is-builtin-module@1.0.0 </tspan>
<tspan x="10" y="2986">    │   │ │ └── builtin-modules@1.1.1 </tspan>
<tspan x="10" y="3002">    │   │ ├── semver@5.3.0 </tspan>
<tspan x="10" y="3018">    │   │ └─┬ validate-npm-package-license@3.0.1 </tspan>
<tspan x="10" y="3034">    │   │   ├─┬ spdx-correct@1.0.2 </tspan>
<tspan x="10" y="3050">    │   │   │ └── spdx-license-ids@1.2.2 </tspan>
<tspan x="10" y="3066">    │   │   └── spdx-expression-parse@1.0.4 </tspan>
<tspan x="10" y="3082">    │   └── path-type@1.1.0 </tspan>
<tspan x="10" y="3098">    ├── require-directory@2.1.1 </tspan>
<tspan x="10" y="3114">    ├── require-main-filename@1.0.1 </tspan>
<tspan x="10" y="3130">    ├── set-blocking@2.0.0 </tspan>
<tspan x="10" y="3146">    ├─┬ string-width@1.0.2 </tspan>
<tspan x="10" y="3162">    │ ├── code-point-at@1.1.0 </tspan>
<tspan x="10" y="3178">    │ ├─┬ is-fullwidth-code-point@1.0.0 </tspan>
<tspan x="10" y="3194">    │ │ └── number-is-nan@1.0.1 </tspan>
<tspan x="10" y="3210">    │ └─┬ strip-ansi@3.0.1 </tspan>
<tspan x="10" y="3226">    │   └── ansi-regex@2.1.1 </tspan>
<tspan x="10" y="3242">    ├── which-module@1.0.0 </tspan>
<tspan x="10" y="3258">    ├── y18n@3.2.1 </tspan>
<tspan x="10" y="3274">    └─┬ yargs-parser@4.2.1 </tspan>
<tspan x="10" y="3290">      └── camelcase@3.0.0</tspan>
</text>
</svg>
